<?xml version="1.0" encoding="utf-8"?>
<!-- Generator: Adobe Illustrator 16.0.0, SVG Export Plug-In . SVG Version: 6.00 Build 0)  -->
<!DOCTYPE svg PUBLIC "-//W3C//DTD SVG 1.1//EN" "http://www.w3.org/Graphics/SVG/1.1/DTD/svg11.dtd">
<svg version="1.1" id="Layer_1" xmlns="http://www.w3.org/2000/svg" xmlns:xlink="http://www.w3.org/1999/xlink" x="0px" y="0px" width="16px" height="16px" viewBox="0 0 16 16" enable-background="new 0 0 16 16" xml:space="preserve">
<path fill="#FFEFAC" d="M5.4,0.655L1.844,6.813c-0.195,0.338-0.079,0.774,0.262,0.97c0.162,0.095,0.356,0.12,0.539,0.071
	l2.226-0.597l2.158,8.054c0.1,0.379,0.491,0.604,0.869,0.504l3.884-1.041c0.379-0.104,0.604-0.492,0.501-0.869L10.128,5.85
	l2.226-0.596c0.381-0.104,0.604-0.493,0.504-0.871c-0.049-0.182-0.168-0.338-0.33-0.432L6.371,0.396C6.03,0.2,5.595,0.317,5.4,0.655
	z"></path>
</svg>
