<svg version="1.1" id="BACKGROUND" opacity=".3" xmlns="http://www.w3.org/2000/svg" x="0" y="0" width="750" height="500" xml:space="preserve"><g opacity=".15"><path fill="none" stroke="#000" stroke-miterlimit="10" d="M-246.821 431.078s-27.405-77.08-12.606-156.76c13.789-74.239 31.642-96.513 41.656-87.695 10.013 8.819-51.522 74.073-29.05 244.455z"/><path fill="#FFFBC3" d="M-269.293 603.73h812.567c4.362-100.064-104.183-183.847-121.966-175.941-19.729 8.768 35.082 51.52 0 66.867-35.074 15.348-78.7-47.563-241.162-89.888C17.686 362.441-7.301 325.842 5.853 211.836 19.007 97.832 127.416-26.497 172.474-111.542c21.27-40.144 20.504-78.044 13.767-106.879h-455.534V603.73z"/><path fill="#995D24" d="M-269.293-163.269v767h778.597c11.312-74.349-58.026-167.724-68.262-154.564-11.51 14.799 27.955 65.771 8.221 83.037-19.729 17.266-42.75 4.932-78.103-20.555-35.354-25.486-92.902-55.906-220.313-92.08C23.433 383.393-29.226 371.883-21.004 237.047c8.222-134.831 141.412-264.762 154.563-335.435 8.34-44.809 4.766-91.705-34.579-120.034h-242.802c-47.034 16.253-91.424 37.285-125.471 55.153z"/><path fill="#FCF7C2" d="M266.863 603.73c-12.767-80.843-92.847-156.853-177.481-169.363-100.086-14.799-156.426-62.484-146.561-157.853 9.866-95.371 88.792-240.069 130.125-312.417 29.85-52.25 43.894-145.081-15.012-182.517h-162.047c-62.944 18.248-120.365 47.617-165.18 75.021v747.13h536.156z"/><path fill="#FDDC9C" d="M-70.879-147.717c-80.177-3.579-155.674 39.589-198.414 69.976V603.73h182.055c-36.875-47.851-60.233-166.732-40.646-263.64C-107.056 237.047-22.649 89.062 1.467 23.29c24.117-65.772 50.426-165.525-72.346-171.007z"/><path fill="#FFFBC3" d="M-166.25-34.809c-43.445 7.329-78.384 33.151-103.042 58.136V603.73h109.211c-7.583-22.589-26.028-90.007-12.746-180.328C-156.385 311.59-78.555 141.679-61.016 68.234-43.476-5.211-75.266-50.155-166.25-34.809z"/><path fill="#995D24" d="M-168.442 20.001c-34.334 1.461-72.769 18.992-100.851 62.313V502.58c12.774 38.428 28.694 73.377 47.822 101.15h47.737c-6.86-24.125-15.821-69.339-14.869-138.988 1.525-111.496 43.181-243.04 61.816-321.968 18.635-78.925 9.865-124.965-41.655-122.773z"/><path fill="#FFFBC3" d="M-148.711 112.082c-8.77-58.099-62.617-57.879-97.562-17.539-8.614 9.944-16.401 24.418-23.02 42.441v329.958a591.574 591.574 0 0 0 6.577 22.286c16.516 52.111 30.872 88.744 42.762 114.503h35.967c-8.129-36.484-17.516-95.568-16.246-170.462 2.193-129.352 60.291-263.089 51.522-321.187z"/><path fill="#E35024" d="M-188.604 132.909c-21.391-33.9-62.528 5.935-80.689 84.916V418.45c11.277 64.852 32.759 125.602 63.158 185.281h8.885c-9.417-33.654-33.626-133.093-22.832-232.945 13.272-122.775 58.455-195.124 31.478-237.877z"/><path fill="#FDDC9C" d="M-220.082 548.369s-30.576-133.734-18.881-213.76c11.694-80.021 58.783-167.694 32.153-174.293-26.631-6.603-49.329 33.981-62.483 132.64v63.71c9.088 90.836 49.211 191.703 49.211 191.703z"/><path fill="#FFFBC3" d="M120.224 526.447c-47.503-9.043-125.607-8.369-152.738-21.996-27.131-13.629-9.469 11.322-1.645 33.016 9.586 26.578 15.023 46.146 16.196 66.265h205.481c-8.956-23.019-31.514-70.472-67.294-77.285z"/><path fill="#995D24" d="M133.559 548.369C100.672 533.848-.236 527.931-3.221 537.467c-2.709 8.654 8.539 38.896 10.038 66.265h170.287c-9.416-20.714-24.562-46.978-43.545-55.363z"/><path fill="#FFFBC3" d="M159.666 603.73c-6.973-16.408-19.504-40.313-35.642-47.441-25.324-11.186-103.027-15.74-105.326-8.398-2.246 7.179 7.968 33.629 7.85 55.841l133.118-.002z"/><path fill="#E35024" d="M121.118 577.084c-21.807-9.631-88.718-13.557-90.696-7.232-1.468 4.689 3.239 18.929 5.555 33.88H144.99c-6.09-11.185-14.235-22.392-23.872-26.648z"/><path fill="#FDDC9C" d="M119.383 596.074c-17.172-7.586-69.858-10.672-71.417-5.695-.696 2.227.375 7.188 1.734 13.352h79.433c-2.97-3.364-6.232-6.104-9.75-7.657zM330.479-218.421c.716 25.435-3.229 58.694-19.884 95.917-37.271 83.311-147.986 166.44-185.258 243.264-37.27 76.826 13.703 179.869 102.769 152.465C317.172 245.817 387.33 77.003 413.638 10.136c17.82-45.296 96.521-160.995 207.445-228.557H330.479z"/><path fill="#FFFBC3" d="M368.461-218.421c-.873 31.474-9.152 73.576-39.23 114.713-59.194 80.958-144.698 178.52-151.275 238.81-6.577 60.292 58.214 82.833 104.14 44.944 45.924-37.888 70.961-139.217 86.454-210.469 10.704-49.231 28.673-128.284 73.102-187.998h-73.191z"/><path fill="#995D24" d="M381.803-218.421c-2.858 30.484-10.447 64.874-28.152 92.629C311.692-60.021 216.767 53.792 207.552 120.76c-9.214 66.968 74.542 64.768 98.657-6.484 24.117-71.254 50.428-181.292 86.604-262.201 11.662-26.095 24.597-50.022 36.769-70.496h-47.779z"/><path fill="#FCF7C2" d="M394.996-218.421c-3.941 29.401-11.912 61.458-27.398 88.244-40.56 70.157-118.39 169.911-134.833 220.335-16.442 50.427 23.26 72.483 54.009 30.602 30.75-41.879 44.649-159.274 98.363-268.685 13.521-27.538 25.579-50.918 36.059-70.496h-26.2z"/><path fill="#FDDC9C" d="M311.964-13.707s-55.074 75.638-58.365 97.014c-3.295 21.375 24.658 13.976 33.701-12.333 9.044-26.308 24.664-84.681 24.664-84.681z"/><path fill="#FEFBC5" d="M472.284 516.582c-11.51 1.645-1.646 41.107-26.31 48.162-24.666 7.053-44.422-1.232-90.437-35.008-77.281-56.729-129.077-73.039-138.943-61.529-9.865 11.51 41.107 46.729 69.883 102.637 5.226 10.148 8.559 21.609 10.656 32.888h194.718c1.382-44.976-12.157-88.211-19.567-87.15z"/><path fill="#79745A" d="M458.308 593.041c-3.954-2.264-11.418 4.424-23.178 10.689h22.697c1.861-4.982 2.701-9.423.481-10.689z"/><path fill="#CC9544" d="M351.396 569.199c-14.834-26.31-43.579-67.879-59.984-59.195-16.405 8.682 13.977 28.775 40.285 60.84 8.694 10.594 13.668 22.152 16.444 32.888h35.019c-12.428-7.861-23.847-20.492-31.764-34.533z"/><path fill="#995D24" d="M963.931-112.64c-48.114-18.55-171.989-54.488-290.493 8.931C522.163-22.75 485.987 101.12 423.505 184.804c-46.757 62.62-82.225 79.65-81.396 115.825.826 36.174 80.301 30.461 141.686 67.85 59.816 36.429 130.027 105.882 137.641 235.253h342.496V-112.64z"/><path fill="#FCF7C2" d="M963.931 603.73V-41.632c-112.68-93.636-251.403-65.912-356.77 27.926-78.738 70.123-82.805 156.5-129.793 206.359-42.099 44.667-90.038 82.763-45.094 110.17 44.942 27.403 134.832 78.926 179.776 147.987 33.492 51.462 32.894 120.877 30.416 152.921l321.465-.001z"/><path fill="#E35024" d="M963.931 603.73V-17.92c-64.25-33.796-157.629-54.584-246.645-11.408C608.688 23.346 559.435 152.64 518.874 196.656c-40.559 44.014-76.734 84.24-26.918 111.285 49.813 27.041 136.539 111.076 154.076 186.716 9.799 42.262 10.701 82.119 9.59 109.074l308.309-.001z"/><path fill="#FDDC9C" d="M963.931 603.73V-3.054C921.552-21.895 839.208-41.9 743.593 10.135 611.63 81.953 617.53 170.18 581.356 198.632c-36.177 28.449-71.253 57.052-42.056 88.44 29.195 31.387 97.961 99.061 117.691 195.524 9.865 48.234 9.865 90.713 7.399 121.134h299.541z"/><path fill="#FFFBC3" d="M963.931 603.73V53.18c-27.186-2.279-70.909 1.147-124.967 30.401-93.178 50.427-174.295 137.792-176.487 186.737-2.193 48.947 32.946 72.625 44.676 141.027 13.194 76.972 6.809 142.558-11.564 192.386l268.342-.001z"/><path fill="#995D24" d="M723.282 603.73h182.02c16.205-18.229 36.134-44.087 58.629-80.275V137.736c-44.309-21.67-111.43.409-169.909 60.896-62.484 64.626-36.175 208.327-38.367 290.596-1.328 49.745-18.779 90.239-32.373 114.502z"/><path fill="#FCF7C2" d="M766.056 603.73h73.048c63.022-67.3 102.008-136.257 124.827-198.474v-231.82c-32.795-19.767-89.717-4.319-139.215 53.745-57.004 66.87-36.178 197.319-38.371 281.854-1.022 39.404-10.483 71.569-20.289 94.695z"/><path fill="#E35024" d="M963.931 209.908c-1.61-5.63-3.813-9.49-6.575-11.276-31.8-20.533-76.734 4.434-116.197 52.667-39.465 48.233-42.752 149.083-42.752 237.93 0 51.145-11.619 90.383-21.486 114.502h41.635c88.23-84.896 133.492-226.584 145.377-318.193l-.002-75.63z"/><path fill="#FDDC9C" d="M883.909 237.58c-51.521 36.711-70.156 164.996-73.445 243.922-2.438 58.492-15.104 103.055-21.502 122.229h7.096c79.906-80.533 125.681-224.841 138.275-298.587 11.42-66.854 1.1-104.27-50.424-67.564z"/><path fill="#CC9544" d="M812.653 566.775s75.641-125.246 88.795-201.728c13.153-76.479 5.479-97.036-19.732-87.306-25.211 9.73-38.364 91.138-42.752 140.87-4.383 49.737-26.311 148.164-26.311 148.164z"/><path fill="#FFFBC3" d="M845.542 479.309s38.367-77.42 41.656-125.311c3.289-47.889-15.349-30.242-20.826-18.783-5.482 11.455-10.965 97.312-20.83 144.094z"/></g></svg>