<?xml version="1.0" encoding="utf-8"?>
<!-- Generator: Adobe Illustrator 16.0.0, SVG Export Plug-In . SVG Version: 6.00 Build 0)  -->
<!DOCTYPE svg PUBLIC "-//W3C//DTD SVG 1.1//EN" "http://www.w3.org/Graphics/SVG/1.1/DTD/svg11.dtd">
<svg version="1.1" id="BACKGROUND" opacity="0.3" xmlns="http://www.w3.org/2000/svg" xmlns:xlink="http://www.w3.org/1999/xlink" x="0px" y="0px" width="750px" height="500px" viewBox="0 0 750 500" enable-background="new 0 0 750 500" xml:space="preserve">
<g opacity="0.15">
	<rect x="-269.293" y="-218.421" display="none" fill="#FEFBC5" width="1233.224" height="822.151"></rect>
	<path fill="none" stroke="#000000" stroke-miterlimit="10" d="M-246.821,431.078c0,0-27.405-77.08-12.606-156.76
		c13.789-74.239,31.642-96.513,41.656-87.695C-207.758,195.442-269.293,260.696-246.821,431.078z"></path>
	<path display="none" fill="#FDDC9C" d="M283.373-218.421h-552.666V603.73h876.415c1.43-68.925-65.099-147.593-121.551-190.955
		c-64.104-49.236-137.492-85.465-148.641-58.527c-11.146,26.941,41.627,38.189,38.089,60.387c-5.898,37-55.059-6.145-165.357-31.586
		c-96.013-22.146-165.336-64.271-168.146-155.142C39.103,149.872,93.54,22.603,208.732-103.739
		C257.241-156.941,276.115-195.244,283.373-218.421z"></path>
	<path display="none" fill="#CC9544" d="M237.705-218.421h-506.998V603.73h843.651c1.139-44.976-20.099-95.283-53.291-134.287
		c-43.851-51.521-126.065-96.465-134.833-82.215c-8.771,14.252,34.154,64.006-15.349,65.771
		c-30.692,1.1-76.734-33.982-179.777-62.483C88.068,362.018,24.989,329.273,24.488,223.893
		C24.16,154.834,83.682,22.194,184.532-106.061C220.333-151.589,233.395-191.063,237.705-218.421z"></path>
	<path fill="#FFFBC3" d="M-269.293,603.73h812.567c4.362-100.064-104.183-183.847-121.966-175.941
		c-19.729,8.768,35.082,51.52,0,66.867c-35.074,15.348-78.7-47.563-241.162-89.888C17.686,362.441-7.301,325.842,5.853,211.836
		C19.007,97.832,127.416-26.497,172.474-111.542c21.27-40.144,20.504-78.044,13.767-106.879h-455.534V603.73z"></path>
	<path fill="#995D24" d="M-269.293-163.269v767h778.597c11.312-74.349-58.026-167.724-68.262-154.564
		c-11.51,14.799,27.955,65.771,8.221,83.037c-19.729,17.266-42.75,4.932-78.103-20.555c-35.354-25.486-92.902-55.906-220.313-92.08
		C23.433,383.393-29.226,371.883-21.004,237.047c8.222-134.831,141.412-264.762,154.563-335.435
		c8.34-44.809,4.766-91.705-34.579-120.034h-242.802C-190.856-202.169-235.246-181.137-269.293-163.269z"></path>
	<path fill="#FCF7C2" d="M266.863,603.73c-12.767-80.843-92.847-156.853-177.481-169.363
		C-10.704,419.568-67.044,371.883-57.179,276.514c9.866-95.371,88.792-240.069,130.125-312.417
		c29.85-52.25,43.894-145.081-15.012-182.517h-162.047c-62.944,18.248-120.365,47.617-165.18,75.021v747.13H266.863z"></path>
	<path display="none" fill="#E35024" d="M168.089,483.695c-53.713-38.367-140.313-44.945-203.893-54.812
		c-63.579-9.867-69.06-72.35-55.906-144.698C-78.555,211.836,9.141,56.176,38.739-1.923
		c29.598-58.098,18.635-181.968-90.984-184.161c-66.846-1.336-156.926,43.388-217.047,78.495V603.73h519.725
		C241.271,562.092,212.587,515.48,168.089,483.695z"></path>
	<path fill="#FDDC9C" d="M-70.879-147.717c-80.177-3.579-155.674,39.589-198.414,69.976V603.73h182.055
		c-36.875-47.851-60.233-166.732-40.646-263.64C-107.056,237.047-22.649,89.062,1.467,23.29
		C25.584-42.482,51.893-142.235-70.879-147.717z"></path>
	<path display="none" fill="#170300" d="M-141.827-99.484c-61.18,11.723-104.064,53.808-127.466,83.418V603.73h119.829
		c-35.334-108.695-6.137-230.806,24.869-319.545C-92.805,193.2-11.687,30.963-4.013-20.558
		C3.66-72.079-44.573-118.119-141.827-99.484z"></path>
	<path fill="#FFFBC3" d="M-166.25-34.809c-43.445,7.329-78.384,33.151-103.042,58.136V603.73h109.211
		c-7.583-22.589-26.028-90.007-12.746-180.328C-156.385,311.59-78.555,141.679-61.016,68.234
		C-43.476-5.211-75.266-50.155-166.25-34.809z"></path>
	<path fill="#995D24" d="M-168.442,20.001c-34.334,1.461-72.769,18.992-100.851,62.313V502.58
		c12.774,38.428,28.694,73.377,47.822,101.15h47.737c-6.86-24.125-15.821-69.339-14.869-138.988
		c1.525-111.496,43.181-243.04,61.816-321.968C-108.152,63.849-116.922,17.809-168.442,20.001z"></path>
	<path fill="#FFFBC3" d="M-148.711,112.082c-8.77-58.099-62.617-57.879-97.562-17.539c-8.614,9.944-16.401,24.418-23.02,42.441
		v329.958c2.044,7.452,4.232,14.889,6.577,22.286c16.516,52.111,30.872,88.744,42.762,114.503h35.967
		c-8.129-36.484-17.516-95.568-16.246-170.462C-198.04,303.917-139.942,170.18-148.711,112.082z"></path>
	<path fill="#E35024" d="M-188.604,132.909c-21.391-33.9-62.528,5.935-80.689,84.916V418.45
		c11.277,64.852,32.759,125.602,63.158,185.281h8.885c-9.417-33.654-33.626-133.093-22.832-232.945
		C-206.81,248.011-161.627,175.662-188.604,132.909z"></path>
	<path fill="#FDDC9C" d="M-220.082,548.369c0,0-30.576-133.734-18.881-213.76c11.694-80.021,58.783-167.694,32.153-174.293
		c-26.631-6.603-49.329,33.981-62.483,132.64v63.71C-260.205,447.502-220.082,548.369-220.082,548.369z"></path>
	<path display="none" fill="#FDDC9C" d="M144.247,496.85C80.943,468.896,3.66,470.541-43.203,456.564
		c-46.863-13.978-49.329-54.263-64.127-50.15c-14.799,4.109-23.021,34.529,0,70.705c21.529,33.83,37.959,86.178,45.438,126.611
		h287.686C218.898,581.361,195.687,519.563,144.247,496.85z"></path>
	<path display="none" fill="#170300" d="M126.16,508.832c-68.239-20.203-151.275-4.582-187.45-37.469
		c-36.174-32.886-43.051-27.291-40.285-17.265c6.577,23.843,31.17,40.285,45.182,78.927c9.446,26.045,11.774,54.75,12.291,70.705
		h252.113C197.044,572.871,172.516,522.559,126.16,508.832z"></path>
	<path fill="#FFFBC3" d="M120.224,526.447c-47.503-9.043-125.607-8.369-152.738-21.996c-27.131-13.629-9.469,11.322-1.645,33.016
		c9.586,26.578,15.023,46.146,16.196,66.265h205.481C178.562,580.713,156.004,533.26,120.224,526.447z"></path>
	<path fill="#995D24" d="M133.559,548.369c-32.887-14.521-133.795-20.438-136.78-10.902c-2.709,8.654,8.539,38.896,10.038,66.265
		h170.287C167.688,583.018,152.542,556.754,133.559,548.369z"></path>
	<path fill="#FFFBC3" d="M159.666,603.73c-6.973-16.408-19.504-40.313-35.642-47.441c-25.324-11.186-103.027-15.74-105.326-8.398
		c-2.246,7.179,7.968,33.629,7.85,55.841L159.666,603.73L159.666,603.73z"></path>
	<path fill="#E35024" d="M121.118,577.084c-21.807-9.631-88.718-13.557-90.696-7.232c-1.468,4.689,3.239,18.929,5.555,33.88H144.99
		C138.9,592.547,130.755,581.34,121.118,577.084z"></path>
	<path fill="#FDDC9C" d="M119.383,596.074c-17.172-7.586-69.858-10.672-71.417-5.695c-0.696,2.227,0.375,7.188,1.734,13.352h79.433
		C126.163,600.367,122.901,597.627,119.383,596.074z"></path>
	<path display="none" fill="#E35024" d="M274.146-122.23C220.707-56.458,139.314,3.559,97.384,100.572
		c-41.93,97.013-14.797,212.039,88.792,221.943c103.591,9.903,187.45-93.69,227.735-186.592
		c40.287-92.903,97.836-209.647,217.049-272.953c105.906-56.24,243.604-59.265,332.971-2.75v-78.642H308.866
		C310.145-195.603,305.165-160.405,274.146-122.23z"></path>
	<path fill="#FDDC9C" d="M330.479-218.421c0.716,25.435-3.229,58.694-19.884,95.917C273.324-39.193,162.609,43.936,125.337,120.76
		c-37.27,76.826,13.703,179.869,102.769,152.465C317.172,245.817,387.33,77.003,413.638,10.136
		c17.82-45.296,96.521-160.995,207.445-228.557H330.479z"></path>
	<path display="none" fill="#170300" d="M345.223-218.421c2.2,30.526-0.808,67.252-19.281,99.206
		C285.383-49.059,197.503,33.156,165.805,100.023c-31.697,66.868-18.015,121.676,40.651,137.557
		c58.665,15.884,119.484-67.4,140.86-147.422c15.708-58.794,73.723-217.596,178.186-308.579H345.223z"></path>
	<path fill="#FFFBC3" d="M368.461-218.421c-0.873,31.474-9.152,73.576-39.23,114.713c-59.194,80.958-144.698,178.52-151.275,238.81
		c-6.577,60.292,58.214,82.833,104.14,44.944c45.924-37.888,70.961-139.217,86.454-210.469
		c10.704-49.231,28.673-128.284,73.102-187.998H368.461z"></path>
	<path fill="#995D24" d="M381.803-218.421c-2.858,30.484-10.447,64.874-28.152,92.629C311.692-60.021,216.767,53.792,207.552,120.76
		c-9.214,66.968,74.542,64.768,98.657-6.484c24.117-71.254,50.428-181.292,86.604-262.201
		c11.662-26.095,24.597-50.022,36.769-70.496H381.803z"></path>
	<path fill="#FCF7C2" d="M394.996-218.421c-3.941,29.401-11.912,61.458-27.398,88.244C327.038-60.02,249.208,39.734,232.765,90.158
		c-16.442,50.427,23.26,72.483,54.009,30.602c30.75-41.879,44.649-159.274,98.363-268.685
		c13.521-27.538,25.579-50.918,36.059-70.496H394.996z"></path>
	<path display="none" fill="#FDDC9C" d="M403.216-218.421c-2.744,13.571-6.248,27.809-10.681,41.107c0,0,7.946-19.362,17.663-41.107
		H403.216z"></path>
	<path display="none" fill="#E35024" d="M342.108-69.886c0,0-89.61,124.966-97.284,157.852c-7.674,32.887,30.416,42.753,48.643-8.77
		C311.692,27.675,321.486-17.86,342.108-69.886z"></path>
	<path fill="#FDDC9C" d="M311.964-13.707c0,0-55.074,75.638-58.365,97.014c-3.295,21.375,24.658,13.976,33.701-12.333
		C296.344,44.666,311.964-13.707,311.964-13.707z"></path>
	<path fill="#FEFBC5" d="M472.284,516.582c-11.51,1.645-1.646,41.107-26.31,48.162c-24.666,7.053-44.422-1.232-90.437-35.008
		c-77.281-56.729-129.077-73.039-138.943-61.529c-9.865,11.51,41.107,46.729,69.883,102.637
		c5.226,10.148,8.559,21.609,10.656,32.888h194.718C493.233,558.756,479.694,515.521,472.284,516.582z"></path>
	<path display="none" fill="#FDDC9C" d="M455.841,579.133c-14.799,18.154-50.149,8.978-80.571-17.332
		c-30.419-26.309-96.19-89.615-106.637-68.237c-10.445,21.374,31.821,50.973,49.909,85.569c4.171,7.98,6.934,16.385,8.729,24.599
		h147.479C482.927,568.365,470.64,560.979,455.841,579.133z"></path>
	<g>
		<path fill="#79745A" d="M458.308,593.041c-3.954-2.264-11.418,4.424-23.178,10.689h22.697
			C459.688,598.748,460.528,594.307,458.308,593.041z"></path>
		<path fill="#CC9544" d="M351.396,569.199c-14.834-26.31-43.579-67.879-59.984-59.195c-16.405,8.682,13.977,28.775,40.285,60.84
			c8.694,10.594,13.668,22.152,16.444,32.888h35.019C370.732,595.871,359.313,583.24,351.396,569.199z"></path>
	</g>
	<path fill="#995D24" d="M963.931-112.64c-48.114-18.55-171.989-54.488-290.493,8.931C522.163-22.75,485.987,101.12,423.505,184.804
		c-46.757,62.62-82.225,79.65-81.396,115.825c0.826,36.174,80.301,30.461,141.686,67.85
		c59.816,36.429,130.027,105.882,137.641,235.253h342.496V-112.64z"></path>
	<path fill="#FCF7C2" d="M963.931,603.73V-41.632c-112.68-93.636-251.403-65.912-356.77,27.926
		c-78.738,70.123-82.805,156.5-129.793,206.359c-42.099,44.667-90.038,82.763-45.094,110.17
		c44.942,27.403,134.832,78.926,179.776,147.987c33.492,51.462,32.894,120.877,30.416,152.921L963.931,603.73L963.931,603.73z"></path>
	<path fill="#E35024" d="M963.931,603.73V-17.92c-64.25-33.796-157.629-54.584-246.645-11.408
		C608.688,23.346,559.435,152.64,518.874,196.656c-40.559,44.014-76.734,84.24-26.918,111.285
		c49.813,27.041,136.539,111.076,154.076,186.716c9.799,42.262,10.701,82.119,9.59,109.074L963.931,603.73L963.931,603.73z"></path>
	<path fill="#FDDC9C" d="M963.931,603.73V-3.054C921.552-21.895,839.208-41.9,743.593,10.135
		C611.63,81.953,617.53,170.18,581.356,198.632c-36.177,28.449-71.253,57.052-42.056,88.44
		c29.195,31.387,97.961,99.061,117.691,195.524c9.865,48.234,9.865,90.713,7.399,121.134H963.931L963.931,603.73z"></path>
	<path display="none" fill="#170300" d="M963.931,603.73V29.373c-34.1-9.242-76.237-5.676-126.061,11.663
		c-88.795,30.9-169.912,144.493-203.896,168.608c-33.979,24.115-55.905,49.329-37.27,77.429
		c18.637,28.098,83.309,120.983,95.369,185.66c7.885,42.295-1.574,97.707-9.066,130.998L963.931,603.73L963.931,603.73z"></path>
	<path fill="#FFFBC3" d="M963.931,603.73V53.18c-27.186-2.279-70.909,1.147-124.967,30.401
		c-93.178,50.427-174.295,137.792-176.487,186.737c-2.193,48.947,32.946,72.625,44.676,141.027
		c13.194,76.972,6.809,142.558-11.564,192.386L963.931,603.73L963.931,603.73z"></path>
	<path fill="#995D24" d="M723.282,603.73h182.02c16.205-18.229,36.134-44.087,58.629-80.275V137.736
		c-44.309-21.67-111.43,0.409-169.909,60.896c-62.484,64.626-36.175,208.327-38.367,290.596
		C754.327,538.973,736.876,579.467,723.282,603.73z"></path>
	<path fill="#FCF7C2" d="M766.056,603.73h73.048c63.022-67.3,102.008-136.257,124.827-198.474v-231.82
		c-32.795-19.767-89.717-4.319-139.215,53.745c-57.004,66.87-36.178,197.319-38.371,281.854
		C785.323,548.439,775.862,580.604,766.056,603.73z"></path>
	<path fill="#E35024" d="M963.931,209.908c-1.61-5.63-3.813-9.49-6.575-11.276c-31.8-20.533-76.734,4.434-116.197,52.667
		c-39.465,48.233-42.752,149.083-42.752,237.93c0,51.145-11.619,90.383-21.486,114.502h41.635
		c88.23-84.896,133.492-226.584,145.377-318.193L963.931,209.908L963.931,209.908z"></path>
	<path fill="#FDDC9C" d="M883.909,237.58c-51.521,36.711-70.156,164.996-73.445,243.922
		c-2.438,58.492-15.104,103.055-21.502,122.229h7.096c79.906-80.533,125.681-224.841,138.275-298.587
		C945.753,238.29,935.433,200.874,883.909,237.58z"></path>
	<path fill="#CC9544" d="M812.653,566.775c0,0,75.641-125.246,88.795-201.728c13.153-76.479,5.479-97.036-19.732-87.306
		c-25.211,9.73-38.364,91.138-42.752,140.87C834.581,468.348,812.653,566.775,812.653,566.775z"></path>
	<path fill="#FFFBC3" d="M845.542,479.309c0,0,38.367-77.42,41.656-125.311c3.289-47.889-15.349-30.242-20.826-18.783
		C860.89,346.67,855.407,432.527,845.542,479.309z"></path>
</g>
</svg>
