<?xml version="1.0" encoding="utf-8"?>
<!-- Generator: Adobe Illustrator 16.0.0, SVG Export Plug-In . SVG Version: 6.00 Build 0)  -->
<!DOCTYPE svg PUBLIC "-//W3C//DTD SVG 1.1//EN" "http://www.w3.org/Graphics/SVG/1.1/DTD/svg11.dtd">
<svg version="1.1" id="Layer_1" xmlns="http://www.w3.org/2000/svg" xmlns:xlink="http://www.w3.org/1999/xlink" x="0px" y="0px" width="1024px" height="1024px" viewBox="0 0 1024 1024" enable-background="new 0 0 1024 1024" xml:space="preserve">
<g id="Layer_39">
	<g id="Layer_23_copy">
		<g id="Layer_20_copy_2">
			<path fill="#725D25" stroke="#1C0A00" stroke-width="37" stroke-miterlimit="10" d="M860.502,887.563
				c0.085-3.712-0.188-7.356-0.843-10.83c-0.808-5.035-1.896-8.177-1.896-8.177l-35.919-149.933c0.04-0.024,0.079-0.052,0.12-0.075
				l-56.797-241.382c31.334-42,8.053-25.183-7.614-29.516l-36.744-150.414l-53.649-223.81
				c-4.631-19.377-21.951-33.048-41.875-33.048h-360.77c-16.415-1.469-62.638,20.071-62.638,20.071
				c-25.612,10.737-37.139,35.949-30.603,62.94L256.5,494.25l2.125,11.375C250.528,516.654,230.5,515,236.75,530.25
				c5.026,12.263,19.678,22.623,34,23.5l68.175,300.242c0,0,0.575,2.509,15.831,68.64l1.715,7.469
				c6.204,25.62,31.505,52.921,57.863,52.483c11.321-0.188,44.508-3.25,87.395-7.676c0.908-0.087,1.822-0.174,2.743-0.262
				c4.439-0.406,7.737-0.72,9.348-0.891l0.026-0.003c85.361-8.15,218.65-21.303,276.133-29.25
				c8.996-1.244,29.192-5.063,35.821-6.037c3.591-0.526,8.202-1.97,13.144-5.644c0.173-0.123,0.339-0.255,0.509-0.382
				c0.054-0.041,0.106-0.082,0.159-0.123c6.654-4.994,11.972-12.41,15.58-20.789c0.024-0.054,0.051-0.103,0.075-0.153
				C859.249,903.112,860.474,894.713,860.502,887.563z"></path>
			<g id="Layer_21_copy_2">
			</g>
		</g>
	</g>
</g>
<g id="Layer_36">
	<g id="Layer_1_1_">
		<g>
			<path fill="#72320D" d="M859.221,874.641L667.158,73.428c-4.631-19.377-21.951-33.048-41.875-33.048H264.514
				c-16.415-1.469-62.638,20.071-62.638,20.071c-25.612,10.737-37.139,35.949-30.603,62.94L356.471,930.1
				c6.204,25.62,31.503,52.797,57.863,52.483c0,0,88.539-7.666,99.485-8.827l309.763-34.988
				C849.596,936.255,865.296,900.063,859.221,874.641z"></path>
			<path fill="#995322" d="M625.283,40.735H264.514c-27.701,0-48.193,25.779-41.945,52.767l127.887,550.547
				c2.917,2.171,5.934,4.244,9.172,6.094c35.435,20.248,75.931-10.124,106.303,15.186c25.311,17.718,35.435,48.09,50.621,75.932
				c25.311,45.56,78.462,50.62,124.021,20.248c7.593-5.062,20.248-5.062,27.842,0c32.903,25.312,68.338,48.09,111.365,35.436
				c30.373-7.594,12.654-45.56,27.842-65.808c4.17-5.308,9.031-9.456,14.344-12.587L667.158,73.783
				C662.527,54.405,645.207,40.735,625.283,40.735z"></path>
		</g>
	</g>
	<g id="Layer_46">
		
			<line fill="none" stroke="#ECCEAE" stroke-width="9" stroke-linecap="round" stroke-miterlimit="10" x1="237.065" y1="101.787" x2="322.326" y2="475.022"></line>
	</g>
	<g id="Layer_47">
		<path fill="#995322" d="M232.674,119.457c1.044,0,15.652-1.044,15.652-1.044v6.783l-13.044-0.522"></path>
		<polygon fill="#995322" points="238.059,134.848 250.464,133.87 252.761,143.261 237.37,140.13 		"></polygon>
		<polygon fill="#995322" points="241.804,159.891 256.083,160.117 262.152,174.761 247.159,174.761 		"></polygon>
	</g>
	<g id="Layer_10">
		<path fill="#CC271D" d="M789.979,944.504c-87.896,12.152-353.048,36.475-353.048,36.475s-66.901,7.859-82.167-58.31
			C339.5,856.5,339.5,856.5,339.5,856.5l-76.429-333.237c0,0-12.321-8.638-12.948-16.539c-0.501-6.313,13.27-11.743,42.377-15.724
			c17.946-2.454,29.107-3.979,29.107-3.979l432.063-52.689c0,0,21.703-1.05,4.971,20.483l99.12,413.742
			c0,0,7.604,21.862-2.496,42.819s-21.992,25.994-29.467,27.091C819.171,939.44,798.975,943.26,789.979,944.504z"></path>
	</g>
	<g id="Layer_48">
		
			<line fill="none" stroke="#ECCEAE" stroke-width="9" stroke-linecap="round" stroke-miterlimit="10" x1="366.5" y1="667.021" x2="429.326" y2="929.196"></line>
	</g>
	<g id="Layer_49">
		<polygon fill="#CC271D" points="417.565,915.109 419.717,922.739 435.37,921.957 433.021,912.565 417.37,913.543 		"></polygon>
		<polygon fill="#CC271D" points="412.674,892.804 415.021,901.804 430.674,901.217 428.13,892.021 		"></polygon>
		<polygon fill="#CC271D" points="360.826,672.891 376.283,671.717 378.239,680.717 362.391,680.717 		"></polygon>
		<polygon fill="#CC271D" points="364.739,693.043 365.717,699.109 381.761,698.717 380.196,689.913 364.543,690.696 		"></polygon>
		<polygon fill="#CC271D" points="367.283,703.152 382.152,702.761 382.804,705.891 368.196,705.891 		"></polygon>
	</g>
	<g id="Layer_19">
		<path fill="#9B1F0B" d="M413.362,919c-15.188-65.956-15.188-65.956-15.188-65.956L337,587.372
			c-31.286-30.685-54.941-50.603-73.857-63.799l93.327,406.527c6.204,25.62,31.505,52.921,57.863,52.483
			c9.769-0.162,35.819-2.465,70.332-5.936L495,975.125C495,975.125,428.55,984.957,413.362,919z"></path>
	</g>
	<g id="Layer_10_copy_6">
		<path fill="#ECCE96" d="M768.575,496.184c11.091-29.184,5.291-56.801-16.88-55.053l-12.252,1.195l-423.033,41.27l-47.16,19.654
			c0,0-19.56-0.604-18.412,12.247c0.44,4.924-6.695,10.526,3.184,33.171c6.353,14.563,20.52,24.555,20.52,24.555l7.633,33.287
			l0.075,0.073l64.507,23.161c0,0,79.281,78.856,110.883,109.036c66.116,63.141,89.428,24.521,107.376,4.528
			c30.142-33.571,132.845-139.544,210.282-219.05L768.575,496.184z"></path>
		<path fill="#332121" d="M311.754,477.44"></path>
	</g>
	<g id="Layer_10_copy_5">
		<path fill="#1C0A00" d="M752.482,431.055l-442.571,40.951l-54.125,20.5c0,0-13.928,5.97-12.78,18.82
			c0.44,4.923,0.673,18.015,10.552,40.66c1.998,4.58,4.944,8.647,8.044,12.074c2.509,2.402,4.66,4.359,6.345,5.742
			c1.761,1.444,6.886,4.448,6.886,4.448l64.757,23.404c0,0,86.048,78.141,117.65,108.319c66.115,63.142,89.621,23.554,107.376,4.529
			c32.266-34.572,133.17-138.928,209.641-217.818C798.593,463.886,773.333,429.411,752.482,431.055z"></path>
		<path fill="#1C0A00" d="M311.754,477.44"></path>
	</g>
	<g id="Layer_24">
		<g>
			<g>
				<ellipse fill="#332121" cx="405.519" cy="320.219" rx="31.302" ry="31.302"></ellipse>
				<ellipse fill="#FBF4CC" cx="413.453" cy="306.424" rx="11.724" ry="11.724"></ellipse>
				<path fill="#FBF4CC" d="M398.483,326.847c4.151,0,7.518,3.366,7.518,7.518c0,4.152-3.365,7.518-7.518,7.518
					s-7.519-3.366-7.519-7.518C390.966,330.213,394.331,326.847,398.483,326.847z"></path>
			</g>
			<g>
				<path fill="#332121" d="M602.1,327.209c-0.821-0.2-1.622-0.527-2.367-0.983c-2.672-1.633-4.195-4.631-3.941-7.75
					c0.08-0.977,2.151-24.045,20.023-36.961c11.664-8.431,22.634-12.385,40.911-7.95c4.451,1.079,7.186,5.563,6.104,10.016
					c-1.079,4.451-5.565,7.184-10.015,6.105c-13.351-3.238-19.733-0.184-27.286,5.274c-3.603,2.604-6.24,5.984-8.167,9.409
					c34.098-9.456,44.775,3.718,46.432,4.649c3.99,2.249,5.403,7.308,3.154,11.297c-2.248,3.984-7.293,5.394-11.285,3.161
					c-0.474-0.265-16.613-16.245-47.238,2.723C606.507,327.387,604.226,327.724,602.1,327.209z"></path>
			</g>
		</g>
		<g id="Layer_18">
			<g id="Layer_15">
				<path fill="#ECCE96" d="M509.14,360.985l55.72-2.366c0,0,23.232-1.567,10.325,24.248
					c-12.814,25.631-30.057,23.473-39.736,23.473c-5.448,0-25.378-1.847-45.362-16.835c-21.39-16.043-27.819-24.946,1.89-27.198
					C501.206,361.606,509.14,360.985,509.14,360.985z"></path>
			</g>
			<g id="Layer_15_copy_3">
				<path fill="#723A0E" d="M533.05,378.165c-22.859-0.446-33.006,16.404-33.623,17.465c16.536,9.397,31.427,10.71,36.021,10.71
					c8.121,0,21.563,1.51,33.249-13.134C564.714,388.317,554.876,378.591,533.05,378.165z"></path>
			</g>
		</g>
	</g>
</g>
<g id="Layer_45">
	<polygon fill="#0C0400" points="256.074,492.397 274.833,574.251 339.891,597.956 310.348,471.761 	"></polygon>
</g>
<g id="Layer_50">
	<polygon fill="#DCB48B" points="274.739,574.283 282.174,606.565 346.804,629.783 339.761,597.826 	"></polygon>
</g>
<g id="Layer_25">
	<path fill="#723B25" d="M288.19,104.375c2.257,0.012,5.699,0.028,9.891,0.039c11.705,0.031,14.353-0.016,27.267-0.018
		c20.462-0.004,22.371,0.111,28.043,0.029c2.183-0.031,3.878-0.021,7.272,0c5.072,0.031,6.399,0.106,7.745,0.245
		c0,0,3.618,0.374,7.255,1.37c5.623,1.539,16.385,6.188,23.707,16.973c1.145,1.686,2.714,4.272,4.108,7.728
		c0.407,0.947,0.981,2.359,1.565,4.109c0.959,2.871,1.377,4.948,1.908,7.321c0.658,2.945,1.46,5.855,2.168,8.788
		c1.929,7.99,2.894,11.984,3.293,13.663c1.337,5.619,3.588,14.863,7.615,30.838c3.568-0.015,6.458,0.001,8.421,0.018
		c0.326,0.003,3.062-0.006,8.535-0.024c2.528-0.008,3.825-0.019,5.38-0.318c1.386-0.267,3.297-0.654,5.38-1.98
		c1.823-1.161,2.911-2.491,3.326-3.033c1.732-2.262,2.29-4.582,2.494-5.87c0.072-0.35,0.164-0.846,0.245-1.443c0,0,0,0,0-0.001
		v-0.001c0.091-0.63,0.269-1.914,0.171-3.251c-0.038-0.54-0.136-1.012-0.329-1.956c-0.218-1.055-0.433-1.824-0.526-2.164
		c-0.031-0.111-0.467-1.925-1.339-5.552c-0.168-0.698-0.633-2.633-0.87-3.623c-0.364-1.518-0.792-3.303-1.169-4.884
		c-0.7-2.937-1.152-4.864-1.459-6.169c-1.571-6.663-1.796-7.28-3.343-13.815c-1.051-4.434-1.023-4.431-2.189-9.379
		c-3.097-13.142-3.644-14.479-5.396-22.467c-0.103-0.467-0.558-2.543-1.239-5.315c-1.047-4.252-1.661-6.749-2.576-9.326
		c-0.792-2.233-2.183-5.576-4.435-9.098c-1.615-2.525-6.157-9.188-14.267-13.761c-2.191-1.236-4.878-2.528-8.038-3.62
		c-2.16-0.746-4.187-1.276-6.018-1.655h-0.002c-0.911-0.188-2.286-0.428-3.983-0.546c-0.729-0.051-1.419-0.072-3.595-0.073
		c-1.959-0.001-2.939-0.002-4.288,0.024c-4.119,0.08-13.437,0.012-31.288,0c-8.495-0.006-8.226,0.006-13.374,0
		c-12.355-0.014-12.566-0.054-18.477-0.024c-7.781,0.039-8.399,0.113-12.448,0.049c-0.785-0.012-2.855-0.016-6.995-0.024
		c-3.531-0.007-4.806-0.001-6.701,0.245c-2.653,0.344-4.463,0.891-5.292,1.162c-2.024,0.662-3.353,1.365-3.707,1.556
		c-0.66,0.356-1.574,0.848-2.544,1.623c-0.724,0.579-2.811,2.296-3.923,5.208c-0.422,1.105-0.594,2.094-0.672,2.56
		c-0.226,1.342-0.211,2.388-0.199,2.785c0.016,0.504,0.057,0.91,0.106,1.322c0.271,2.241,0.722,3.92,1.43,7.077
		c0.036,0.161,0.152,0.679,0.313,1.387c0.198,0.872,0.347,1.514,0.379,1.655c0.378,1.634,0.952,4.243,1.1,4.912
		C286.962,99.177,287.466,101.393,288.19,104.375z"></path>
	<path fill="#723B25" d="M498.712,104.636c2.257,0.012,5.699,0.028,9.892,0.039c11.704,0.031,14.353-0.016,27.267-0.018
		c20.462-0.004,22.371,0.111,28.043,0.029c2.182-0.031,3.878-0.021,7.271,0c5.072,0.031,6.4,0.106,7.745,0.245
		c0,0,3.618,0.374,7.255,1.37c5.623,1.539,16.386,6.188,23.706,16.973c1.146,1.686,2.714,4.272,4.109,7.728
		c0.407,0.947,0.98,2.359,1.564,4.109c0.959,2.871,1.378,4.948,1.908,7.321c0.658,2.945,1.46,5.855,2.168,8.788
		c1.93,7.99,2.895,11.984,3.294,13.663c1.337,5.619,3.589,14.863,7.615,30.838c3.569-0.015,6.458,0.001,8.421,0.018
		c0.326,0.003,3.063-0.006,8.535-0.024c2.529-0.008,3.826-0.019,5.38-0.318c1.386-0.267,3.297-0.654,5.38-1.981
		c1.823-1.161,2.911-2.491,3.326-3.033c1.733-2.262,2.29-4.582,2.495-5.87c0.072-0.35,0.164-0.846,0.245-1.443c0,0,0,0,0-0.001
		v-0.001c0.09-0.63,0.268-1.914,0.171-3.251c-0.039-0.54-0.136-1.012-0.33-1.956c-0.217-1.055-0.432-1.824-0.526-2.164
		c-0.03-0.111-0.467-1.925-1.339-5.552c-0.168-0.698-0.633-2.633-0.87-3.623c-0.363-1.518-0.791-3.303-1.169-4.884
		c-0.699-2.937-1.151-4.864-1.459-6.169c-1.57-6.663-1.796-7.28-3.343-13.815c-1.05-4.434-1.022-4.431-2.188-9.379
		c-3.098-13.142-3.645-14.479-5.397-22.467c-0.102-0.467-0.557-2.543-1.239-5.315c-1.047-4.252-1.661-6.749-2.575-9.326
		c-0.792-2.233-2.184-5.576-4.436-9.098c-1.615-2.525-6.157-9.188-14.266-13.761c-2.192-1.236-4.878-2.528-8.038-3.62
		c-2.16-0.746-4.188-1.276-6.019-1.655h-0.002c-0.911-0.188-2.286-0.428-3.982-0.546c-0.73-0.051-1.419-0.072-3.596-0.073
		c-1.959-0.001-2.938-0.002-4.287,0.024c-4.119,0.08-13.438,0.012-31.288,0c-8.495-0.006-8.227,0.006-13.374,0
		c-12.356-0.014-12.567-0.054-18.478-0.024c-7.781,0.039-8.398,0.113-12.448,0.049c-0.784-0.012-2.854-0.016-6.994-0.024
		c-3.531-0.007-4.807-0.001-6.701,0.245c-2.653,0.344-4.463,0.891-5.292,1.162c-2.024,0.662-3.354,1.365-3.707,1.556
		c-0.66,0.356-1.574,0.848-2.544,1.623c-0.725,0.579-2.812,2.296-3.923,5.208c-0.423,1.105-0.595,2.094-0.673,2.56
		c-0.226,1.342-0.211,2.388-0.198,2.785c0.016,0.504,0.057,0.91,0.105,1.322c0.271,2.241,0.722,3.92,1.431,7.077
		c0.035,0.161,0.151,0.679,0.313,1.387c0.198,0.872,0.347,1.514,0.379,1.655c0.378,1.634,0.952,4.243,1.1,4.912
		C497.484,99.438,497.988,101.654,498.712,104.636z"></path>
</g>
</svg>
