<svg version="1.1" id="Layer_1" xmlns="http://www.w3.org/2000/svg" xmlns:xlink="http://www.w3.org/1999/xlink" x="0" y="0" width="1024" height="1024" xml:space="preserve"><path fill="none" stroke="#F6E6A2" stroke-width="63" stroke-miterlimit="10" d="M860.502 887.563c.085-3.712-.188-7.356-.843-10.83-.808-5.035-1.896-8.177-1.896-8.177l-35.919-149.934c.04-.023.079-.051.12-.074l-56.797-241.382c31.334-42 8.053-25.183-7.614-29.516l-36.744-150.414-53.649-223.81c-4.631-19.377-21.951-33.048-41.875-33.048L270.157 54.63c-16.414-1.469-66.207 2.677-66.207 2.677-25.612 10.737-37.139 35.949-30.603 62.94L256.5 494.25l2.125 11.375c-8.097 11.03-28.125 9.375-21.875 24.625 5.026 12.263 19.678 22.622 34 23.5l68.175 300.242s.575 2.51 15.831 68.64l1.715 7.469c6.204 25.62 31.505 52.921 57.862 52.483 11.321-.188 44.508-3.25 87.395-7.676l2.743-.262a810.72 810.72 0 0 0 9.348-.891l.026-.003c85.361-8.15 218.65-21.303 276.132-29.25 8.997-1.244 29.193-5.063 35.822-6.037 3.591-.526 8.202-1.97 13.145-5.644.172-.123.338-.255.508-.382l.16-.123c6.653-4.994 11.971-12.41 15.578-20.789.025-.054.052-.103.076-.153 3.983-8.262 5.208-16.661 5.236-23.811z"/><defs><path id="SVGID_1_" d="m752.482 431.056-442.571 40.951L258 476.5s-16.141 21.977-14.994 34.827c.44 4.923.674 18.015 10.552 40.659 6.353 14.563 22.29 23.963 22.29 23.963l79.361 284.203 372.977-100.687 40.846-261.388c32.076-29.038 6.772-67.082-15.1-67.08-.485.002-.97.021-1.45.059"/></defs><clipPath id="SVGID_2_"><use xlink:href="#SVGID_1_" overflow="visible"/></clipPath><path clip-path="url('#SVGID_2_')" fill="#F6E6A2" d="m170.075 465.028 697.022-67.999S618.861 652.383 564.618 710.505c-17.756 19.023-41.261 58.611-107.377-4.529C425.638 675.796 331.667 614 331.667 614l-56.833-39.749s-5.125-3.004-6.886-4.448c-19.19-15.742-97.873-104.775-97.873-104.775"/></svg>