<svg version="1.1" id="Layer_1" xmlns="http://www.w3.org/2000/svg" x="0" y="0" width="1024" height="1024" xml:space="preserve"><g id="Layer_39"><g id="Layer_23_copy"><g id="Layer_20_copy_2"><path fill="#725D25" stroke="#1C0A00" stroke-width="37" stroke-miterlimit="10" d="M860.502 887.563c.085-3.712-.188-7.356-.843-10.83-.808-5.035-1.896-8.177-1.896-8.177l-35.919-149.933c.04-.024.079-.052.12-.075l-56.797-241.382c31.334-42 8.053-25.183-7.614-29.516l-36.744-150.414-53.649-223.81c-4.631-19.377-21.951-33.048-41.875-33.048h-360.77c-16.415-1.469-62.638 20.071-62.638 20.071-25.612 10.737-37.139 35.949-30.603 62.94L256.5 494.25l2.125 11.375C250.528 516.654 230.5 515 236.75 530.25c5.026 12.263 19.678 22.623 34 23.5l68.175 300.242s.575 2.509 15.831 68.64l1.715 7.469c6.204 25.62 31.505 52.921 57.863 52.483 11.321-.188 44.508-3.25 87.395-7.676l2.743-.262a810.72 810.72 0 0 0 9.348-.891l.026-.003c85.361-8.15 218.65-21.303 276.133-29.25 8.996-1.244 29.192-5.063 35.821-6.037 3.591-.526 8.202-1.97 13.144-5.644.173-.123.339-.255.509-.382l.159-.123c6.654-4.994 11.972-12.41 15.58-20.789.024-.054.051-.103.075-.153 3.982-8.262 5.207-16.661 5.235-23.811z"/></g></g></g><g id="Layer_36"><g id="Layer_1_1_"><path fill="#72320D" d="M859.221 874.641 667.158 73.428c-4.631-19.377-21.951-33.048-41.875-33.048H264.514c-16.415-1.469-62.638 20.071-62.638 20.071-25.612 10.737-37.139 35.949-30.603 62.94L356.471 930.1c6.204 25.62 31.503 52.797 57.863 52.483 0 0 88.539-7.666 99.485-8.827l309.763-34.988c26.014-2.513 41.714-38.705 35.639-64.127z"/><path fill="#995322" d="M625.283 40.735H264.514c-27.701 0-48.193 25.779-41.945 52.767l127.887 550.547c2.917 2.171 5.934 4.244 9.172 6.094 35.435 20.248 75.931-10.124 106.303 15.186 25.311 17.718 35.435 48.09 50.621 75.932 25.311 45.56 78.462 50.62 124.021 20.248 7.593-5.062 20.248-5.062 27.842 0 32.903 25.312 68.338 48.09 111.365 35.436 30.373-7.594 12.654-45.56 27.842-65.808 4.17-5.308 9.031-9.456 14.344-12.587L667.158 73.783c-4.631-19.378-21.951-33.048-41.875-33.048z"/></g><path fill="none" stroke="#ECCEAE" stroke-width="9" stroke-linecap="round" stroke-miterlimit="10" d="m237.065 101.787 85.261 373.235" id="Layer_46"/><g id="Layer_47" fill="#995322"><path d="M232.674 119.457c1.044 0 15.652-1.044 15.652-1.044v6.783l-13.044-.522M238.059 134.848l12.405-.978 2.297 9.391-15.391-3.131zM241.804 159.891l14.279.226 6.069 14.644h-14.993z"/></g><path fill="#CC271D" d="M789.979 944.504c-87.896 12.152-353.048 36.475-353.048 36.475s-66.901 7.859-82.167-58.31L339.5 856.5l-76.429-333.237s-12.321-8.638-12.948-16.539c-.501-6.313 13.27-11.743 42.377-15.724l29.107-3.979 432.063-52.689s21.703-1.05 4.971 20.483l99.12 413.742s7.604 21.862-2.496 42.819-21.992 25.994-29.467 27.091c-6.627.973-26.823 4.793-35.819 6.037z" id="Layer_10"/><path fill="none" stroke="#ECCEAE" stroke-width="9" stroke-linecap="round" stroke-miterlimit="10" d="m366.5 667.021 62.826 262.175" id="Layer_48"/><g id="Layer_49" fill="#CC271D"><path d="m417.565 915.109 2.152 7.63 15.653-.782-2.349-9.392-15.651.978zM412.674 892.804l2.347 9 15.653-.587-2.544-9.196zM360.826 672.891l15.457-1.174 1.956 9h-15.848zM364.739 693.043l.978 6.066 16.044-.392-1.565-8.804-15.653.783zM367.283 703.152l14.869-.391.652 3.13h-14.608z"/></g><path fill="#9B1F0B" d="m413.362 919-15.188-65.956L337 587.372c-31.286-30.685-54.941-50.603-73.857-63.799L356.47 930.1c6.204 25.62 31.505 52.921 57.863 52.483 9.769-.162 35.819-2.465 70.332-5.936L495 975.125s-66.45 9.832-81.638-56.125z" id="Layer_19"/><path fill="#ECCE96" d="M768.575 496.184c11.091-29.184 5.291-56.801-16.88-55.053l-12.252 1.195-423.033 41.27-47.16 19.654s-19.56-.604-18.412 12.247c.44 4.924-6.695 10.526 3.184 33.171 6.353 14.563 20.52 24.555 20.52 24.555l7.633 33.287.075.073 64.507 23.161S426.038 708.6 457.64 738.78c66.116 63.141 89.428 24.521 107.376 4.528 30.142-33.571 132.845-139.544 210.282-219.05l-6.723-28.074z" id="Layer_10_copy_6"/><path fill="#1C0A00" d="m752.482 431.055-442.571 40.951-54.125 20.5s-13.928 5.97-12.78 18.82c.44 4.923.673 18.015 10.552 40.66 1.998 4.58 4.944 8.647 8.044 12.074 2.509 2.402 4.66 4.359 6.345 5.742 1.761 1.444 6.886 4.448 6.886 4.448l64.757 23.404s86.048 78.141 117.65 108.319c66.115 63.142 89.621 23.554 107.376 4.529 32.266-34.572 133.17-138.928 209.641-217.818 24.336-28.798-.924-63.273-21.775-61.629z" id="Layer_10_copy_5"/><g id="Layer_24"><circle fill="#332121" cx="405.519" cy="320.219" r="31.302"/><circle fill="#FBF4CC" cx="413.453" cy="306.424" r="11.724"/><path fill="#FBF4CC" d="M398.483 326.847a7.519 7.519 0 1 1-.001 15.037 7.519 7.519 0 0 1 .001-15.037z"/><path fill="#332121" d="M602.1 327.209a8.294 8.294 0 0 1-6.308-8.733c.08-.977 2.151-24.045 20.023-36.961 11.664-8.431 22.634-12.385 40.911-7.95a8.292 8.292 0 0 1 6.104 10.016 8.295 8.295 0 0 1-10.015 6.105c-13.351-3.238-19.733-.184-27.286 5.274-3.603 2.604-6.24 5.984-8.167 9.409 34.098-9.456 44.775 3.718 46.432 4.649a8.294 8.294 0 0 1 3.154 11.297c-2.248 3.984-7.293 5.394-11.285 3.161-.474-.265-16.613-16.245-47.238 2.723a8.297 8.297 0 0 1-6.325 1.01z"/><g id="Layer_18"><path fill="#ECCE96" d="m509.14 360.985 55.72-2.366s23.232-1.567 10.325 24.248c-12.814 25.631-30.057 23.473-39.736 23.473-5.448 0-25.378-1.847-45.362-16.835-21.39-16.043-27.819-24.946 1.89-27.198 9.229-.701 17.163-1.322 17.163-1.322z" id="Layer_15"/><path fill="#723A0E" d="M533.05 378.165c-22.859-.446-33.006 16.404-33.623 17.465 16.536 9.397 31.427 10.71 36.021 10.71 8.121 0 21.563 1.51 33.249-13.134-3.983-4.889-13.821-14.615-35.647-15.041z" id="Layer_15_copy_3"/></g></g></g><path fill="#0C0400" d="m256.074 492.397 18.759 81.854 65.058 23.705-29.543-126.195z" id="Layer_45"/><path fill="#DCB48B" d="m274.739 574.283 7.435 32.282 64.63 23.218-7.043-31.957z" id="Layer_50"/><g id="Layer_25" fill="#723B25"><path d="M288.19 104.375c2.257.012 5.699.028 9.891.039 11.705.031 14.353-.016 27.267-.018 20.462-.004 22.371.111 28.043.029 2.183-.031 3.878-.021 7.272 0 5.072.031 6.399.106 7.745.245 0 0 3.618.374 7.255 1.37 5.623 1.539 16.385 6.188 23.707 16.973a41.046 41.046 0 0 1 4.108 7.728c.407.947.981 2.359 1.565 4.109.959 2.871 1.377 4.948 1.908 7.321.658 2.945 1.46 5.855 2.168 8.788 1.929 7.99 2.894 11.984 3.293 13.663 1.337 5.619 3.588 14.863 7.615 30.838 3.568-.015 6.458.001 8.421.018.326.003 3.062-.006 8.535-.024 2.528-.008 3.825-.019 5.38-.318 1.386-.267 3.297-.654 5.38-1.98a13.039 13.039 0 0 0 3.326-3.033c1.732-2.262 2.29-4.582 2.494-5.87.072-.35.164-.846.245-1.443v-.002c.091-.63.269-1.914.171-3.251-.038-.54-.136-1.012-.329-1.956-.218-1.055-.433-1.824-.526-2.164-.031-.111-.467-1.925-1.339-5.552a4238.786 4238.786 0 0 1-2.039-8.507c-.7-2.937-1.152-4.864-1.459-6.169-1.571-6.663-1.796-7.28-3.343-13.815-1.051-4.434-1.023-4.431-2.189-9.379-3.097-13.142-3.644-14.479-5.396-22.467-.103-.467-.558-2.543-1.239-5.315-1.047-4.252-1.661-6.749-2.576-9.326a45.013 45.013 0 0 0-4.435-9.098c-1.615-2.525-6.157-9.188-14.267-13.761a48.81 48.81 0 0 0-14.056-5.275h-.002a29.998 29.998 0 0 0-3.983-.546c-.729-.051-1.419-.072-3.595-.073-1.959-.001-2.939-.002-4.288.024-4.119.08-13.437.012-31.288 0-8.495-.006-8.226.006-13.374 0-12.355-.014-12.566-.054-18.477-.024-7.781.039-8.399.113-12.448.049-.785-.012-2.855-.016-6.995-.024-3.531-.007-4.806-.001-6.701.245-2.653.344-4.463.891-5.292 1.162-2.024.662-3.353 1.365-3.707 1.556-.66.356-1.574.848-2.544 1.623-.724.579-2.811 2.296-3.923 5.208a13.184 13.184 0 0 0-.672 2.56 14.303 14.303 0 0 0-.199 2.785c.016.504.057.91.106 1.322.271 2.241.722 3.92 1.43 7.077.036.161.152.679.313 1.387.198.872.347 1.514.379 1.655.378 1.634.952 4.243 1.1 4.912.336 1.506.84 3.722 1.564 6.704zM498.712 104.636c2.257.012 5.699.028 9.892.039 11.704.031 14.353-.016 27.267-.018 20.462-.004 22.371.111 28.043.029 2.182-.031 3.878-.021 7.271 0 5.072.031 6.4.106 7.745.245 0 0 3.618.374 7.255 1.37 5.623 1.539 16.386 6.188 23.706 16.973a41.04 41.04 0 0 1 4.109 7.728c.407.947.98 2.359 1.564 4.109.959 2.871 1.378 4.948 1.908 7.321.658 2.945 1.46 5.855 2.168 8.788 1.93 7.99 2.895 11.984 3.294 13.663 1.337 5.619 3.589 14.863 7.615 30.838 3.569-.015 6.458.001 8.421.018.326.003 3.063-.006 8.535-.024 2.529-.008 3.826-.019 5.38-.318 1.386-.267 3.297-.654 5.38-1.981a13.039 13.039 0 0 0 3.326-3.033c1.733-2.262 2.29-4.582 2.495-5.87.072-.35.164-.846.245-1.443v-.002c.09-.63.268-1.914.171-3.251-.039-.54-.136-1.012-.33-1.956-.217-1.055-.432-1.824-.526-2.164a4238.786 4238.786 0 0 1-2.209-9.175l-1.169-4.884c-.699-2.937-1.151-4.864-1.459-6.169-1.57-6.663-1.796-7.28-3.343-13.815-1.05-4.434-1.022-4.431-2.188-9.379-3.098-13.142-3.645-14.479-5.397-22.467-.102-.467-.557-2.543-1.239-5.315-1.047-4.252-1.661-6.749-2.575-9.326a45.026 45.026 0 0 0-4.436-9.098c-1.615-2.525-6.157-9.188-14.266-13.761a48.643 48.643 0 0 0-14.057-5.275h-.002a30.003 30.003 0 0 0-3.982-.546c-.73-.051-1.419-.072-3.596-.073-1.959-.001-2.938-.002-4.287.024-4.119.08-13.438.012-31.288 0-8.495-.006-8.227.006-13.374 0-12.356-.014-12.567-.054-18.478-.024-7.781.039-8.398.113-12.448.049-.784-.012-2.854-.016-6.994-.024-3.531-.007-4.807-.001-6.701.245-2.653.344-4.463.891-5.292 1.162-2.024.662-3.354 1.365-3.707 1.556-.66.356-1.574.848-2.544 1.623-.725.579-2.812 2.296-3.923 5.208a13.132 13.132 0 0 0-.673 2.56 14.191 14.191 0 0 0-.198 2.785c.016.504.057.91.105 1.322.271 2.241.722 3.92 1.431 7.077.035.161.151.679.313 1.387.198.872.347 1.514.379 1.655.378 1.634.952 4.243 1.1 4.912.335 1.507.839 3.723 1.563 6.705z"/></g></svg>