<?xml version="1.0" encoding="utf-8"?>
<!-- Generator: Adobe Illustrator 16.0.0, SVG Export Plug-In . SVG Version: 6.00 Build 0)  -->
<!DOCTYPE svg PUBLIC "-//W3C//DTD SVG 1.1//EN" "http://www.w3.org/Graphics/SVG/1.1/DTD/svg11.dtd">
<svg version="1.1" id="Layer_1" xmlns="http://www.w3.org/2000/svg" xmlns:xlink="http://www.w3.org/1999/xlink" x="0px" y="0px" width="1024px" height="1024px" viewBox="0 0 1024 1024" enable-background="new 0 0 1024 1024" xml:space="preserve">
<g>
	<path fill="none" stroke="#F6E6A2" stroke-width="63" stroke-miterlimit="10" d="M860.502,887.563
		c0.085-3.712-0.188-7.356-0.843-10.83c-0.808-5.035-1.896-8.177-1.896-8.177l-35.919-149.934c0.04-0.023,0.079-0.051,0.12-0.074
		l-56.797-241.382c31.334-42,8.053-25.183-7.614-29.516l-36.744-150.414l-53.649-223.81c-4.631-19.377-21.951-33.048-41.875-33.048
		L270.157,54.63c-16.414-1.469-66.207,2.677-66.207,2.677c-25.612,10.737-37.139,35.949-30.603,62.94L256.5,494.25l2.125,11.375
		c-8.097,11.03-28.125,9.375-21.875,24.625c5.026,12.263,19.678,22.622,34,23.5l68.175,300.242c0,0,0.575,2.51,15.831,68.64
		l1.715,7.469c6.204,25.62,31.505,52.921,57.862,52.483c11.321-0.188,44.508-3.25,87.395-7.676c0.908-0.087,1.822-0.174,2.743-0.262
		c4.439-0.406,7.737-0.72,9.348-0.891l0.026-0.003c85.361-8.15,218.65-21.303,276.132-29.25c8.997-1.244,29.193-5.063,35.822-6.037
		c3.591-0.526,8.202-1.97,13.145-5.644c0.172-0.123,0.338-0.255,0.508-0.382c0.054-0.041,0.106-0.082,0.16-0.123
		c6.653-4.994,11.971-12.41,15.578-20.789c0.025-0.054,0.052-0.103,0.076-0.153C859.249,903.112,860.474,894.713,860.502,887.563z"></path>
</g>
<g>
	<g>
		<defs>
			<path id="SVGID_1_" d="M752.482,431.056l-442.571,40.951L258,476.5c0,0-16.141,21.977-14.994,34.827
				c0.44,4.923,0.674,18.015,10.552,40.659c6.353,14.563,22.29,23.963,22.29,23.963l79.361,284.203l372.977-100.687l40.846-261.388
				c32.076-29.038,6.772-67.082-15.1-67.08C753.447,430.999,752.962,431.018,752.482,431.056"></path>
		</defs>
		<clipPath id="SVGID_2_">
			<use xlink:href="#SVGID_1_" overflow="visible"></use>
		</clipPath>
		<path clip-path="url('#SVGID_2_')" fill="#F6E6A2" d="M170.075,465.028l697.022-67.999c0,0-248.236,255.354-302.479,313.476
			c-17.756,19.023-41.261,58.611-107.377-4.529C425.638,675.796,331.667,614,331.667,614l-56.833-39.749
			c0,0-5.125-3.004-6.886-4.448C248.758,554.061,170.075,465.028,170.075,465.028"></path>
	</g>
</g>
</svg>
